<svg width="24" height="25" viewBox="0 0 24 25" fill="none" xmlns="http://www.w3.org/2000/svg">
<path fill-rule="evenodd" clip-rule="evenodd" d="M12 2.21741C6.47715 2.21741 2 6.69456 2 12.2174C2 17.7403 6.47715 22.2174 12 22.2174C17.5228 22.2174 22 17.7403 22 12.2174C22 6.69456 17.5228 2.21741 12 2.21741ZM0 12.2174C0 5.58999 5.37258 0.217407 12 0.217407C18.6274 0.217407 24 5.58999 24 12.2174C24 18.8448 18.6274 24.2174 12 24.2174C5.37258 24.2174 0 18.8448 0 12.2174Z" fill="#1C1F35"/>
<path fill-rule="evenodd" clip-rule="evenodd" d="M12 5.21741C12.5523 5.21741 13 5.66512 13 6.21741V11.2174H19C19.5523 11.2174 20 11.6651 20 12.2174C20 12.7697 19.5523 13.2174 19 13.2174H12C11.4477 13.2174 11 12.7697 11 12.2174V6.21741C11 5.66512 11.4477 5.21741 12 5.21741Z" fill="#1C1F35"/>
</svg>
