<svg width="22" height="25" viewBox="0 0 22 25" fill="none" xmlns="http://www.w3.org/2000/svg">
<path fill-rule="evenodd" clip-rule="evenodd" d="M4.02293 5.00257C2.79297 6.8065 2 9.35431 2 12.2174C2 15.0805 2.79297 17.6283 4.02293 19.4322C5.25634 21.2412 6.85686 22.2174 8.5 22.2174C10.1431 22.2174 11.7437 21.2412 12.9771 19.4322C14.207 17.6283 15 15.0805 15 12.2174C15 9.35431 14.207 6.8065 12.9771 5.00257C11.7437 3.19357 10.1431 2.21741 8.5 2.21741C6.85686 2.21741 5.25634 3.19357 4.02293 5.00257ZM2.37047 3.8759C3.85153 1.70368 6.00101 0.217407 8.5 0.217407C10.999 0.217407 13.1485 1.70368 14.6295 3.8759C16.114 6.05318 17 9.00537 17 12.2174C17 15.4294 16.114 18.3816 14.6295 20.5589C13.1485 22.7311 10.999 24.2174 8.5 24.2174C6.00101 24.2174 3.85153 22.7311 2.37047 20.5589C0.88596 18.3816 0 15.4294 0 12.2174C0 9.00537 0.88596 6.05318 2.37047 3.8759Z" fill="#1C1F35"/>
<path fill-rule="evenodd" clip-rule="evenodd" d="M8 1.21741C8 0.665122 8.44772 0.217407 9 0.217407H14.5385C16.8213 0.217407 18.7077 1.7877 19.9684 3.93349C21.2431 6.10297 22 9.03428 22 12.2174C22 15.4005 21.2431 18.3319 19.9684 20.5013C18.7077 22.6471 16.8213 24.2174 14.5385 24.2174H9C8.44772 24.2174 8 23.7697 8 23.2174C8 22.6651 8.44772 22.2174 9 22.2174H14.5385C15.821 22.2174 17.1654 21.3242 18.2441 19.4882C19.3088 17.6759 20 15.1072 20 12.2174C20 9.32762 19.3088 6.75893 18.2441 4.94663C17.1654 3.11066 15.821 2.21741 14.5385 2.21741H9C8.44772 2.21741 8 1.76969 8 1.21741Z" fill="#1C1F35"/>
<path fill-rule="evenodd" clip-rule="evenodd" d="M14 5.21741C14 4.66512 14.4477 4.21741 15 4.21741L18 4.21741C18.5523 4.21741 19 4.66512 19 5.21741C19 5.76969 18.5523 6.21741 18 6.21741L15 6.21741C14.4477 6.21741 14 5.76969 14 5.21741Z" fill="#1C1F35"/>
<path fill-rule="evenodd" clip-rule="evenodd" d="M15 12.2174C15 11.6651 15.4477 11.2174 16 11.2174H21C21.5523 11.2174 22 11.6651 22 12.2174C22 12.7697 21.5523 13.2174 21 13.2174H16C15.4477 13.2174 15 12.7697 15 12.2174Z" fill="#1C1F35"/>
<path fill-rule="evenodd" clip-rule="evenodd" d="M13 20.2174C13 19.6651 13.4477 19.2174 14 19.2174H19C19.5523 19.2174 20 19.6651 20 20.2174C20 20.7697 19.5523 21.2174 19 21.2174H14C13.4477 21.2174 13 20.7697 13 20.2174Z" fill="#1C1F35"/>
</svg>
