<svg width="14" height="13" viewBox="0 0 14 13" fill="none" xmlns="http://www.w3.org/2000/svg">
<path fill-rule="evenodd" clip-rule="evenodd" d="M0.25 6.46484C0.25 6.05063 0.585786 5.71484 1 5.71484H13C13.4142 5.71484 13.75 6.05063 13.75 6.46484C13.75 6.87906 13.4142 7.21484 13 7.21484H1C0.585786 7.21484 0.25 6.87906 0.25 6.46484Z" fill="white"/>
<path fill-rule="evenodd" clip-rule="evenodd" d="M7.46967 0.934514C7.76256 0.64162 8.23744 0.64162 8.53033 0.934514L13.5303 5.93451C13.8232 6.22741 13.8232 6.70228 13.5303 6.99517L8.53033 11.9952C8.23744 12.2881 7.76256 12.2881 7.46967 11.9952C7.17678 11.7023 7.17678 11.2274 7.46967 10.9345L11.9393 6.46484L7.46967 1.99517C7.17678 1.70228 7.17678 1.22741 7.46967 0.934514Z" fill="white"/>
</svg>
