<svg width="26" height="27" viewBox="0 0 26 27" fill="none" xmlns="http://www.w3.org/2000/svg">
<path fill-rule="evenodd" clip-rule="evenodd" d="M13 24.2174C6.92487 24.2174 2 19.2925 2 13.2174C2 7.14227 6.92487 2.21741 13 2.21741C19.0751 2.21741 24 7.14227 24 13.2174C24 19.2925 19.0751 24.2174 13 24.2174ZM0 13.2174C0 20.3971 5.8203 26.2174 13 26.2174C20.1797 26.2174 26 20.3971 26 13.2174C26 6.0377 20.1797 0.217407 13 0.217407C5.8203 0.217407 0 6.0377 0 13.2174Z" fill="#1C1F35"/>
<path fill-rule="evenodd" clip-rule="evenodd" d="M1 17.2174C1 17.7697 1.44772 18.2174 2 18.2174H24C24.5523 18.2174 25 17.7697 25 17.2174C25 16.6651 24.5523 16.2174 24 16.2174H2C1.44772 16.2174 1 16.6651 1 17.2174Z" fill="#1C1F35"/>
<path fill-rule="evenodd" clip-rule="evenodd" d="M1 9.21741C1 9.76969 1.44772 10.2174 2 10.2174H24C24.5523 10.2174 25 9.76969 25 9.21741C25 8.66512 24.5523 8.21741 24 8.21741H2C1.44772 8.21741 1 8.66512 1 9.21741Z" fill="#1C1F35"/>
<path fill-rule="evenodd" clip-rule="evenodd" d="M11.1203 21.3865C10.4387 19.3418 10 16.4535 10 13.2174C10 9.98127 10.4387 7.093 11.1203 5.04835C11.4628 4.0208 11.8486 3.26139 12.2284 2.7794C12.6172 2.28614 12.8854 2.21741 13 2.21741C13.1146 2.21741 13.3828 2.28614 13.7716 2.7794C14.1514 3.26139 14.5372 4.0208 14.8797 5.04835C15.5613 7.093 16 9.98127 16 13.2174C16 16.4535 15.5613 19.3418 14.8797 21.3865C14.5372 22.414 14.1514 23.1734 13.7716 23.6554C13.3828 24.1487 13.1146 24.2174 13 24.2174C12.8854 24.2174 12.6172 24.1487 12.2284 23.6554C11.8486 23.1734 11.4628 22.414 11.1203 21.3865ZM10.6576 24.8934C11.226 25.6146 12.01 26.2174 13 26.2174C13.99 26.2174 14.774 25.6146 15.3424 24.8934C15.9197 24.1609 16.3958 23.1629 16.7771 22.0189C17.5433 19.7204 18 16.6087 18 13.2174C18 9.82613 17.5433 6.71439 16.7771 4.4159C16.3958 3.27188 15.9197 2.27393 15.3424 1.54145C14.774 0.820248 13.99 0.217409 13 0.217409C12.01 0.217409 11.226 0.820248 10.6576 1.54145C10.0803 2.27393 9.60423 3.27188 9.22289 4.4159C8.45672 6.71439 8 9.82613 8 13.2174C8 16.6087 8.45672 19.7204 9.22289 22.0189C9.60423 23.1629 10.0803 24.1609 10.6576 24.8934Z" fill="#1C1F35"/>
</svg>
