<svg width="21" height="23" viewBox="0 0 21 23" fill="none" xmlns="http://www.w3.org/2000/svg">
<path fill-rule="evenodd" clip-rule="evenodd" d="M10.4946 0.217699C11.8643 0.207596 13.2233 0.460133 14.4936 0.961505C15.7664 1.46382 16.9259 2.20636 17.9046 3.14776C18.8834 4.08922 19.6619 5.21102 20.1938 6.44928C20.7258 7.68761 21 9.01698 21 10.3604C21 10.3604 21 10.3604 21 10.3604V15.6936C21 16.373 20.7215 17.0181 20.2361 17.4889C19.7517 17.9587 19.1011 18.2174 18.4289 18.2174H16.8579C16.1857 18.2174 15.5351 17.9587 15.0508 17.4889C14.5654 17.0181 14.2868 16.373 14.2868 15.6936V11.8842C14.2868 11.2048 14.5654 10.5597 15.0508 10.0889C15.5351 9.61911 16.1857 9.3604 16.8579 9.3604H18.9362C18.8431 8.63292 18.6485 7.91907 18.3562 7.23864C17.9309 6.24844 17.3067 5.34767 16.5181 4.58917C15.7295 3.83061 14.7922 3.22945 13.7594 2.82185C12.7266 2.41424 11.6198 2.20867 10.5032 2.21769L10.488 2.2177C9.3721 2.20981 8.26627 2.41621 7.23449 2.82434C6.20277 3.23244 5.26647 3.83377 4.47879 4.59222C3.69117 5.3506 3.06778 6.25098 2.64298 7.24063C2.35116 7.92046 2.15682 8.63363 2.06376 9.3604H4.14212C4.81432 9.3604 5.4649 9.61911 5.94925 10.0889C6.43464 10.5597 6.71318 11.2048 6.71318 11.8842V15.6936C6.71318 16.373 6.43464 17.0181 5.94925 17.4889C5.4649 17.9587 4.81431 18.2174 4.14212 18.2174H2.57106C1.89886 18.2174 1.24828 17.9587 0.76393 17.4889C0.278541 17.0181 2.98514e-09 16.373 2.98514e-09 15.6936V10.3604C2.98514e-09 10.3604 2.98514e-09 10.3604 2.98514e-09 10.3604C-3.3018e-05 9.01787 0.273887 7.68937 0.805136 6.45174C1.33636 5.21417 2.11395 4.09284 3.09156 3.15152C4.0691 2.21026 5.22736 1.46749 6.49884 0.964547C7.76794 0.462549 9.12575 0.208985 10.4946 0.217699ZM2 11.3604V15.6936C2 15.8225 2.0525 15.9525 2.15638 16.0533C2.26129 16.155 2.40991 16.2174 2.57106 16.2174H4.14212C4.30327 16.2174 4.45189 16.155 4.5568 16.0533C4.66068 15.9525 4.71318 15.8225 4.71318 15.6936V11.8842C4.71318 11.7553 4.66068 11.6253 4.5568 11.5245C4.45189 11.4228 4.30326 11.3604 4.14212 11.3604H2ZM19 11.3604H16.8579C16.6967 11.3604 16.5481 11.4228 16.4432 11.5245C16.3393 11.6253 16.2868 11.7553 16.2868 11.8842V15.6936C16.2868 15.8225 16.3393 15.9525 16.4432 16.0533C16.5481 16.155 16.6967 16.2174 16.8579 16.2174H18.4289C18.5901 16.2174 18.7387 16.155 18.8436 16.0533C18.9475 15.9525 19 15.8225 19 15.6936V11.3604Z" fill="#1C1F35"/>
<path fill-rule="evenodd" clip-rule="evenodd" d="M20 15.2174C20.5523 15.2174 21 15.6651 21 16.2174V18.3603C21 19.4242 20.523 20.4167 19.7215 21.1283C18.9238 21.8366 17.8649 22.2174 16.7821 22.2174H11C10.4477 22.2174 10 21.7697 10 21.2174C10 20.6651 10.4477 20.2174 11 20.2174H16.7821C17.4062 20.2174 17.9843 19.9962 18.3936 19.6328C18.799 19.2728 19 18.8118 19 18.3603V16.2174C19 15.6651 19.4477 15.2174 20 15.2174Z" fill="#1C1F35"/>
</svg>
