<svg width="30" height="30" viewBox="0 0 30 30" fill="none" xmlns="http://www.w3.org/2000/svg">
<path fill-rule="evenodd" clip-rule="evenodd" d="M18.4541 1C18.4541 0.447715 18.9018 0 19.4541 0H28.9996C29.5518 0 29.9996 0.447715 29.9996 1V10.5455C29.9996 11.0977 29.5518 11.5455 28.9996 11.5455C28.4473 11.5455 27.9996 11.0977 27.9996 10.5455V2H19.4541C18.9018 2 18.4541 1.55228 18.4541 1Z" fill="white"/>
<path fill-rule="evenodd" clip-rule="evenodd" d="M29.7076 0.292893C30.0981 0.683417 30.0981 1.31658 29.7076 1.70711L18.253 13.1617C17.8625 13.5522 17.2293 13.5522 16.8388 13.1617C16.4483 12.7711 16.4483 12.138 16.8388 11.7474L28.2933 0.292893C28.6839 -0.0976311 29.317 -0.0976311 29.7076 0.292893Z" fill="white"/>
<path fill-rule="evenodd" clip-rule="evenodd" d="M2.27273 7.09082C2.2004 7.09082 2.13103 7.11955 2.07988 7.1707C2.02873 7.22185 2 7.29122 2 7.36355V27.7272C2 27.7995 2.02873 27.8689 2.07988 27.92C2.13103 27.9712 2.20039 27.9999 2.27273 27.9999H22.6364C22.7087 27.9999 22.7781 27.9712 22.8292 27.92C22.8804 27.8689 22.9091 27.7995 22.9091 27.7272V17.5454C22.9091 16.9931 23.3568 16.5454 23.9091 16.5454C24.4614 16.5454 24.9091 16.9931 24.9091 17.5454V27.7272C24.9091 28.3299 24.6696 28.908 24.2434 29.3342C23.8172 29.7605 23.2391 29.9999 22.6364 29.9999H2.27273C1.66996 29.9999 1.09189 29.7605 0.665667 29.3342C0.239447 28.908 0 28.33 0 27.7272V7.36355C0 6.76078 0.239448 6.18271 0.665667 5.75649C1.09189 5.33027 1.66996 5.09082 2.27273 5.09082H12.4545C13.0068 5.09082 13.4545 5.53854 13.4545 6.09082C13.4545 6.64311 13.0068 7.09082 12.4545 7.09082H2.27273Z" fill="white"/>
</svg>
