<svg width="22" height="16" viewBox="0 0 22 16" fill="none" xmlns="http://www.w3.org/2000/svg">
<path fill-rule="evenodd" clip-rule="evenodd" d="M2.13439 1C1.76803 1 1.63037 1.23211 1.63037 1.33874V14.6613C1.63037 14.7679 1.76803 15 2.13439 15H20.1264C20.4927 15 20.6304 14.7679 20.6304 14.6613V1.33874C20.6304 1.23211 20.4927 1 20.1264 1H2.13439ZM0.630371 1.33874C0.630371 0.51892 1.39173 0 2.13439 0H20.1264C20.869 0 21.6304 0.51892 21.6304 1.33874V14.6613C21.6304 15.4811 20.869 16 20.1264 16H2.13439C1.39173 16 0.630371 15.4811 0.630371 14.6613V1.33874Z" fill="#F6B426"/>
<path fill-rule="evenodd" clip-rule="evenodd" d="M0.851562 0.915161L1.40903 0.0849609L11.5477 6.89288L20.8416 0.321213L21.419 1.13772L11.5623 8.10725L0.851562 0.915161Z" fill="#F6B426"/>
</svg>
