<svg width="33" height="20" viewBox="0 0 33 20" fill="none" xmlns="http://www.w3.org/2000/svg">
<path fill-rule="evenodd" clip-rule="evenodd" d="M2.14132 1.91571C1.91905 1.91571 1.78418 2.08311 1.78418 2.23468V17.2002C1.78418 17.3518 1.91905 17.5192 2.14132 17.5192H30.927C31.1493 17.5192 31.2842 17.3518 31.2842 17.2002V2.23468C31.2842 2.08311 31.1493 1.91571 30.927 1.91571H2.14132ZM0.28418 2.23468C0.28418 1.2055 1.14068 0.41571 2.14132 0.41571H30.927C31.9277 0.41571 32.7842 1.2055 32.7842 2.23468V17.2002C32.7842 18.2294 31.9277 19.0192 30.927 19.0192H2.14132C1.14068 19.0192 0.28418 18.2294 0.28418 17.2002V2.23468Z" fill="#1C1F35"/>
<path fill-rule="evenodd" clip-rule="evenodd" d="M16.5343 7.2605C14.8823 7.2605 13.543 8.59978 13.543 10.2519C13.543 11.904 14.8823 13.2433 16.5343 13.2433C18.1864 13.2433 19.5257 11.904 19.5257 10.2519C19.5257 8.59978 18.1864 7.2605 16.5343 7.2605ZM12.043 10.2519C12.043 7.77136 14.0538 5.7605 16.5343 5.7605C19.0149 5.7605 21.0257 7.77136 21.0257 10.2519C21.0257 12.7324 19.0149 14.7433 16.5343 14.7433C14.0538 14.7433 12.043 12.7324 12.043 10.2519Z" fill="#1C1F35"/>
<path fill-rule="evenodd" clip-rule="evenodd" d="M22.918 0.671842C23.1908 0.360115 23.6646 0.328527 23.9763 0.601288L32.528 8.08405C32.8398 8.35681 32.8714 8.83063 32.5986 9.14236C32.3258 9.45408 31.852 9.48567 31.5403 9.21291L22.9886 1.73015C22.6768 1.45739 22.6452 0.98357 22.918 0.671842Z" fill="#1C1F35"/>
<path fill-rule="evenodd" clip-rule="evenodd" d="M32.5986 10.2929C32.8714 10.6046 32.8398 11.0784 32.528 11.3512L23.9763 18.8339C23.6646 19.1067 23.1908 19.0751 22.918 18.7634C22.6452 18.4517 22.6768 17.9778 22.9886 17.7051L31.5403 10.2223C31.852 9.94956 32.3258 9.98115 32.5986 10.2929Z" fill="#1C1F35"/>
<path fill-rule="evenodd" clip-rule="evenodd" d="M10.1503 0.671842C10.4231 0.98357 10.3915 1.45739 10.0798 1.73015L1.52807 9.21291C1.21634 9.48567 0.742519 9.45408 0.469757 9.14236C0.196996 8.83063 0.228584 8.35681 0.540312 8.08405L9.09204 0.601288C9.40376 0.328527 9.87759 0.360115 10.1503 0.671842Z" fill="#1C1F35"/>
<path fill-rule="evenodd" clip-rule="evenodd" d="M0.469757 10.2929C0.742519 9.98115 1.21634 9.94956 1.52807 10.2223L10.0798 17.7051C10.3915 17.9778 10.4231 18.4517 10.1503 18.7634C9.87759 19.0751 9.40376 19.1067 9.09204 18.8339L0.540312 11.3512C0.228584 11.0784 0.196996 10.6046 0.469757 10.2929Z" fill="#1C1F35"/>
</svg>
