<svg width="24" height="27" viewBox="0 0 24 27" fill="none" xmlns="http://www.w3.org/2000/svg">
<path fill-rule="evenodd" clip-rule="evenodd" d="M11.0663 0.461252C11.3518 0.301007 11.6736 0.217407 12 0.217407C12.3264 0.217407 12.6482 0.301008 12.9337 0.461252L23.0166 6.02046C23.3104 6.18404 23.5576 6.42207 23.7312 6.71257C23.9048 7.00321 23.9981 7.33522 24 7.67493L24 7.68041L24 18.7544H23L24 18.7599C23.9981 19.0996 23.9048 19.4316 23.7312 19.7222C23.5576 20.0127 23.3104 20.2508 23.0166 20.4143L23.013 20.4163L12.9336 25.9736C12.6482 26.1338 12.3264 26.2174 12 26.2174C11.6736 26.2174 11.3518 26.1338 11.0664 25.9736L0.986965 20.4163L0.983433 20.4143C0.689576 20.2508 0.442418 20.0127 0.268832 19.7222C0.0951514 19.4316 0.00187641 19.0996 1.50204e-05 18.7599L0 18.7544V7.67493C0.00186139 7.33523 0.0951514 7.00322 0.268832 6.71257C0.442418 6.42207 0.689576 6.18404 0.983433 6.02047L0.986961 6.01851L11.0663 0.461252ZM22 18.691V7.74382L12 2.23031L2 7.74382V18.691L12 24.2045L22 18.691Z" fill="#1C1F35"/>
<path fill-rule="evenodd" clip-rule="evenodd" d="M6.12516 3.73333C6.3925 3.25007 7.00099 3.07503 7.48426 3.34238L18.4843 9.42769C18.8026 9.6038 19.0002 9.93891 19.0002 10.3027V16.2174C19.0002 16.7697 18.5525 17.2174 18.0002 17.2174C17.4479 17.2174 17.0002 16.7697 17.0002 16.2174V10.8923L6.51611 5.09244C6.03285 4.82509 5.85781 4.2166 6.12516 3.73333Z" fill="#1C1F35"/>
<path fill-rule="evenodd" clip-rule="evenodd" d="M0.120409 6.74204C0.382951 6.25615 0.989675 6.07509 1.47557 6.33763L12.1 12.0783L22.5178 6.34145C23.0016 6.07504 23.6098 6.25126 23.8762 6.73504C24.1426 7.21883 23.9663 7.82697 23.4826 8.09338L12.5869 14.0934C12.289 14.2574 11.9283 14.2588 11.6291 14.0972L0.524819 8.0972C0.0389276 7.83466 -0.142133 7.22793 0.120409 6.74204Z" fill="#1C1F35"/>
<path fill-rule="evenodd" clip-rule="evenodd" d="M12 12.2174C12.5523 12.2174 13 12.6651 13 13.2174V25.2174C13 25.7697 12.5523 26.2174 12 26.2174C11.4477 26.2174 11 25.7697 11 25.2174V13.2174C11 12.6651 11.4477 12.2174 12 12.2174Z" fill="#1C1F35"/>
</svg>
