<svg width="20" height="19" viewBox="0 0 20 19" fill="none" xmlns="http://www.w3.org/2000/svg">
<path fill-rule="evenodd" clip-rule="evenodd" d="M5.97051 0.500561C6.43291 0.489973 6.88852 0.629522 7.25981 0.900842C7.63168 1.17259 7.89816 1.56185 8.00509 2.00671L8.0062 2.01132L8.54131 4.33409C8.62875 4.73024 8.58376 5.14157 8.41435 5.51072C8.2452 5.87933 7.96199 6.18462 7.60861 6.38979L7.60572 6.39147L6.70835 6.90448C6.98486 8.47812 8.19425 9.78991 9.58485 10.8011C10.9354 11.7831 12.3706 12.4189 13.0177 12.6842L13.5041 11.9942L13.5057 11.992C13.736 11.669 14.0608 11.4231 14.4345 11.2808C14.8079 11.1387 15.2167 11.1052 15.6092 11.1836L15.6127 11.1843L18.0504 11.6894C18.4883 11.7852 18.8851 12.0174 19.1739 12.3554C19.4633 12.6941 19.6267 13.1191 19.6308 13.5627L19.6309 13.5674L19.6309 17.0319C19.627 17.4131 19.4687 17.7723 19.1983 18.0388C18.9287 18.3043 18.5679 18.4589 18.1905 18.48L18.1833 18.4804C13.2156 18.6866 8.32562 17.2888 4.5691 13.1971C2.97678 11.4728 2.03099 9.24954 1.46511 7.21113C0.897888 5.16786 0.702259 3.27312 0.633738 2.17265L1.13275 2.14158L0.633853 2.17444C0.620847 1.97701 0.65035 1.77968 0.71987 1.5946C0.789352 1.40961 0.89692 1.2418 1.03439 1.10028C1.17179 0.958842 1.33629 0.846462 1.51721 0.768225C1.6976 0.690215 1.89165 0.647278 2.08813 0.641103L5.97051 0.500561ZM6.69154 6.80077C6.69159 6.80111 6.69165 6.80145 6.6917 6.80179ZM5.99643 1.50023L2.12012 1.6406C2.04793 1.6428 1.97781 1.65854 1.91413 1.68608C1.85049 1.7136 1.79557 1.75187 1.75167 1.79706C1.70785 1.84218 1.67594 1.89317 1.65601 1.94622C1.63612 1.99917 1.6281 2.05428 1.63169 2.10871L1.63181 2.1105C1.69777 3.16992 1.88639 4.9902 2.42867 6.94364C2.97226 8.90176 3.86113 10.9567 5.30411 12.519L5.30515 12.5201C8.81747 16.3463 13.3934 17.6774 18.1377 17.4814C18.2798 17.4727 18.4072 17.4144 18.4965 17.3264C18.5849 17.2393 18.6292 17.1307 18.6309 17.0239V13.57C18.6285 13.3688 18.5544 13.1697 18.4137 13.005C18.2724 12.8396 18.0712 12.7182 17.8391 12.6669L15.4133 12.1642C15.4128 12.1641 15.4123 12.164 15.4118 12.1639C15.2031 12.1225 14.9861 12.1409 14.7902 12.2154C14.5943 12.29 14.432 12.4158 14.3206 12.5716C14.3203 12.572 14.3201 12.5723 14.3199 12.5726L13.7835 13.3335C13.6654 13.5005 13.4933 13.6179 13.3027 13.6721C13.1123 13.7262 12.9082 13.7166 12.7234 13.6441L12.7186 13.6422C12.086 13.3863 10.5004 12.7032 8.99674 11.6099C7.50785 10.5272 6.00369 8.97275 5.70262 6.9492M7.03229 2.23838C6.98273 2.03439 6.85776 1.84559 6.6698 1.70824C6.4814 1.57056 6.24353 1.49523 5.99643 1.50023" fill="#F6B426"/>
</svg>
