<svg width="32" height="33" viewBox="0 0 32 33" fill="none" xmlns="http://www.w3.org/2000/svg">
<path fill-rule="evenodd" clip-rule="evenodd" d="M16 4.21741C16.5523 4.21741 17 4.66512 17 5.21741V8.21741C17 8.76969 16.5523 9.21741 16 9.21741C15.4477 9.21741 15 8.76969 15 8.21741V5.21741C15 4.66512 15.4477 4.21741 16 4.21741Z" fill="#1C1F35"/>
<path fill-rule="evenodd" clip-rule="evenodd" d="M16 13.2241L7 16.2435V19.5594C7.68666 21.7869 9.52318 23.3724 11.493 24.4653C13.4405 25.5459 15.3693 26.0604 16 26.2106C16.6307 26.0604 18.5595 25.5459 20.507 24.4653C22.4768 23.3724 24.3133 21.7869 25 19.5594V16.2435L16 13.2241ZM15.4443 11.3013C15.8064 11.1894 16.1936 11.1894 16.5557 11.3013L16.5785 11.3087L25.7408 14.3825C25.7416 14.3828 25.7425 14.3831 25.7434 14.3833C26.1096 14.505 26.4277 14.739 26.653 15.0517C26.8788 15.3649 27 15.7412 27 16.127C27 16.127 27 16.127 27 16.1271V19.7044C27 19.7971 26.9871 19.8894 26.9617 19.9785C26.0953 23.0177 23.6832 24.9903 21.4774 26.2142C19.2638 27.4423 17.0982 28.0071 16.4235 28.1656C16.1453 28.2347 15.8544 28.2347 15.5762 28.1655C14.9011 28.0069 12.7358 27.4421 10.5226 26.2142C8.31677 24.9903 5.90473 23.0177 5.03832 19.9785C5.0129 19.8894 5 19.7971 5 19.7044V16.1271C5 16.127 5 16.127 5 16.127C4.99999 15.7412 5.1212 15.3649 5.34696 15.0517C5.57225 14.7391 5.89036 14.505 6.25662 14.3834C6.25749 14.3831 6.25837 14.3828 6.25924 14.3825L15.4215 11.3087L15.4443 11.3013Z" fill="#1C1F35"/>
<path fill-rule="evenodd" clip-rule="evenodd" d="M16 11.2174C16.5523 11.2174 17 11.6651 17 12.2174V20.2174C17 20.7697 16.5523 21.2174 16 21.2174C15.4477 21.2174 15 20.7697 15 20.2174V12.2174C15 11.6651 15.4477 11.2174 16 11.2174Z" fill="#1C1F35"/>
<path fill-rule="evenodd" clip-rule="evenodd" d="M10 9.21741V14.2174C10 14.7697 9.55228 15.2174 9 15.2174C8.44772 15.2174 8 14.7697 8 14.2174V8.96741C8 8.46724 8.2217 8.01186 8.57511 7.69378C8.92505 7.37884 9.37912 7.21741 9.83333 7.21741H23.1667C23.6209 7.21741 24.0749 7.37884 24.4249 7.69378C24.7783 8.01186 25 8.46724 25 8.96741V14.2174C25 14.7697 24.5523 15.2174 24 15.2174C23.4477 15.2174 23 14.7697 23 14.2174V9.21741H10Z" fill="#1C1F35"/>
</svg>
